<svg width="17" height="21" viewBox="0 0 17 21" fill="none" xmlns="http://www.w3.org/2000/svg">
<path d="M8.5 0C11.538 0 14 2.462 14 5.5C14 7.277 13.158 8.857 11.85 9.862C14.88 11.185 17 14.25 17 17.817V18.665C17 19.096 16.734 19.48 16.335 19.625C11.434 21.399 6.093 21.458 1.146 19.793L0.676 19.628C0.27 19.488 0 19.1 0 18.665V17.817C0 14.249 2.12 11.185 5.149 9.861C3.842 8.857 3 7.277 3 5.5C3 2.462 5.462 0 8.5 0ZM8.5 11.2C4.91 11.2 2 14.162 2 17.817V17.933L2.253 18.015C6.323 19.28 10.667 19.28 14.733 18.019L15 17.932V17.817C15 14.241 12.215 11.328 8.733 11.203L8.5 11.2ZM8.5 2C6.567 2 5 3.567 5 5.5C5 7.433 6.567 9 8.5 9C10.433 9 12 7.433 12 5.5C12 3.567 10.433 2 8.5 2Z" />
</svg>
