<svg width="18" height="24" viewBox="0 0 18 24" fill="none" xmlns="http://www.w3.org/2000/svg">
<g clip-path="url(#clip0)">
<path d="M10 2.09C13.001 2.608 15.289 5.33 15.289 8.608V11.518L17.579 15.438L17.666 15.597C18.373 16.987 17.927 18.73 16.622 19.561C16.172 19.848 15.653 20 15.125 20H13C13 22.21 11.21 24 9 24C6.858 24 5.109 22.316 5.005 20.2L5 20H2.875C2.347 20 1.829 19.848 1.378 19.561C0.0729988 18.731 -0.372001 16.987 0.333999 15.597L0.420999 15.437L2.711 11.518V8.608C2.711 5.328 4.999 2.608 8.001 2.089L8 1C8 0.448 8.448 0 9 0C9.513 0 9.936 0.386 9.993 0.883L10 1V2.09ZM11 20H7C7 21.105 7.895 22 9 22C10.054 22 10.918 21.184 10.995 20.15L11 20ZM9 4.001L9.042 4C6.672 4 4.738 5.95 4.632 8.397L4.627 8.607V11.8C4.627 11.938 4.6 12.074 4.547 12.199L4.487 12.321L2.057 16.479C1.781 16.951 1.924 17.566 2.376 17.854C2.488 17.925 2.614 17.972 2.744 17.991L2.874 18H15.125L15.256 17.99C15.386 17.972 15.512 17.925 15.624 17.854C16.076 17.566 16.219 16.951 15.944 16.479L13.513 12.321L13.453 12.199C13.4 12.074 13.373 11.938 13.373 11.799V8.609L13.368 8.398C13.262 5.95 11.328 4 8.958 4L9 4.001Z" />
</g>
<defs>
<clipPath id="clip0">
<rect width="18" height="24" fill="white"/>
</clipPath>
</defs>
</svg>
