<svg width="24" height="24" viewBox="0 0 24 24" fill="none" xmlns="http://www.w3.org/2000/svg">
<path fill-rule="evenodd" clip-rule="evenodd" d="M12 2C6.47715 2 2 6.47715 2 12C2 17.5228 6.47715 22 12 22C17.5228 22 22 17.5228 22 12C22 6.47715 17.5228 2 12 2ZM0 12C0 5.37258 5.37258 0 12 0C18.6274 0 24 5.37258 24 12C24 18.6274 18.6274 24 12 24C5.37258 24 0 18.6274 0 12Z" />
<path d="M10.6648 13.9475H12.549V13.7784C12.5589 12.809 12.907 12.3565 13.6925 11.8842C14.6222 11.3324 15.2287 10.6016 15.2287 9.43325C15.2287 7.69319 13.8267 6.67899 11.853 6.67899C10.0483 6.67899 8.5767 7.62359 8.53195 9.61222H10.5604C10.5902 8.80186 11.1918 8.36933 11.843 8.36933C12.5142 8.36933 13.0561 8.81677 13.0561 9.50782C13.0561 10.1591 12.5838 10.5916 11.9723 10.9794C11.1371 11.5064 10.6697 12.0384 10.6648 13.7784V13.9475ZM11.6442 17.1293C12.2805 17.1293 12.8324 16.5973 12.8373 15.9361C12.8324 15.2848 12.2805 14.7528 11.6442 14.7528C10.9879 14.7528 10.446 15.2848 10.451 15.9361C10.446 16.5973 10.9879 17.1293 11.6442 17.1293Z" />
</svg>
